<svg width="20" height="20" viewBox="0 0 20 20" fill="none" xmlns="http://www.w3.org/2000/svg">
<path d="M15.2735 18.75C14.511 18.75 13.4399 18.4742 11.836 17.5781C9.88562 16.4844 8.37702 15.4746 6.43718 13.5398C4.56687 11.6707 3.65671 10.4606 2.38288 8.14258C0.94382 5.52539 1.18913 4.15352 1.46335 3.56719C1.78991 2.86641 2.27195 2.44727 2.89499 2.03125C3.24888 1.79939 3.62338 1.60064 4.01374 1.4375C4.0528 1.42071 4.08913 1.40469 4.12155 1.39024C4.31491 1.30313 4.60788 1.17149 4.97898 1.31211C5.22663 1.40508 5.44773 1.59532 5.79382 1.93711C6.50359 2.63711 7.47351 4.1961 7.83132 4.96172C8.07155 5.47774 8.23054 5.81836 8.23093 6.20039C8.23093 6.64766 8.00593 6.99258 7.73288 7.36485C7.68171 7.43477 7.63093 7.50157 7.58171 7.56641C7.28444 7.95704 7.21921 8.06993 7.26218 8.27149C7.34929 8.67657 7.9989 9.88243 9.06648 10.9477C10.1341 12.0129 11.3051 12.6215 11.7118 12.7082C11.9219 12.7531 12.0372 12.6852 12.4403 12.3773C12.4981 12.3332 12.5575 12.2875 12.6196 12.2418C13.036 11.932 13.3649 11.7129 13.8016 11.7129H13.804C14.1841 11.7129 14.5094 11.8777 15.0485 12.1496C15.7516 12.5043 17.3575 13.4617 18.0618 14.1723C18.4044 14.5176 18.5954 14.7379 18.6887 14.9852C18.8294 15.3574 18.6969 15.6492 18.6106 15.8445C18.5962 15.877 18.5801 15.9125 18.5634 15.952C18.3989 16.3416 18.199 16.7153 17.9661 17.0684C17.5509 17.6895 17.1301 18.1703 16.4278 18.4973C16.0671 18.6679 15.6725 18.7543 15.2735 18.75Z" fill="#003A9B"/>
</svg>
